<mxfile host="app.diagrams.net" modified="2021-12-21T09:32:45.262Z" agent="5.0 (X11; Linux x86_64) AppleWebKit/537.36 (KHTML, like Gecko) Chrome/96.0.4664.93 Safari/537.36" etag="iyjFtvwxppcG6y2XdnFk" version="16.0.0" type="github">
  <diagram id="C5RBs43oDa-KdzZeNtuy" name="Page-1">
    <mxGraphModel dx="2870" dy="3347" grid="1" gridSize="10" guides="1" tooltips="1" connect="1" arrows="1" fold="1" page="1" pageScale="1" pageWidth="827" pageHeight="1169" math="0" shadow="0">
      <root>
        <mxCell id="WIyWlLk6GJQsqaUBKTNV-0" />
        <mxCell id="WIyWlLk6GJQsqaUBKTNV-1" parent="WIyWlLk6GJQsqaUBKTNV-0" />
        <mxCell id="zkfFHV4jXpPFQw0GAbJ--0" value="Mapper" style="swimlane;fontStyle=2;align=center;verticalAlign=top;childLayout=stackLayout;horizontal=1;startSize=26;horizontalStack=0;resizeParent=1;resizeLast=0;collapsible=1;marginBottom=0;rounded=0;shadow=0;strokeWidth=1;" parent="WIyWlLk6GJQsqaUBKTNV-1" vertex="1">
          <mxGeometry x="-230" y="-830" width="270" height="250" as="geometry">
            <mxRectangle x="230" y="140" width="160" height="26" as="alternateBounds" />
          </mxGeometry>
        </mxCell>
        <mxCell id="zkfFHV4jXpPFQw0GAbJ--1" value="-mainTable: string&#xa;-currentColumn: &amp;columns[column]&#xa;-columns: array&#xa;-joins: array&#xa;-groupBy: array of string" style="text;align=left;verticalAlign=top;spacingLeft=4;spacingRight=4;overflow=hidden;rotatable=0;points=[[0,0.5],[1,0.5]];portConstraint=eastwest;" parent="zkfFHV4jXpPFQw0GAbJ--0" vertex="1">
          <mxGeometry y="26" width="270" height="84" as="geometry" />
        </mxCell>
        <mxCell id="zkfFHV4jXpPFQw0GAbJ--4" value="" style="line;html=1;strokeWidth=1;align=left;verticalAlign=middle;spacingTop=-1;spacingLeft=3;spacingRight=3;rotatable=0;labelPosition=right;points=[];portConstraint=eastwest;" parent="zkfFHV4jXpPFQw0GAbJ--0" vertex="1">
          <mxGeometry y="110" width="270" height="8" as="geometry" />
        </mxCell>
        <mxCell id="zkfFHV4jXpPFQw0GAbJ--5" value="+constructor(mainTable: string)&#xa;+addColumn(&quot;column&quot;): MapperColumnBuilder&#xa;+getColumns(): array;&#xa;+getJoins(): array&#xa;+getGroupBy(): array" style="text;align=left;verticalAlign=top;spacingLeft=4;spacingRight=4;overflow=hidden;rotatable=0;points=[[0,0.5],[1,0.5]];portConstraint=eastwest;" parent="zkfFHV4jXpPFQw0GAbJ--0" vertex="1">
          <mxGeometry y="118" width="270" height="132" as="geometry" />
        </mxCell>
        <mxCell id="9OzK3of8a9EYW3qf5LEb-5" style="edgeStyle=orthogonalEdgeStyle;rounded=0;orthogonalLoop=1;jettySize=auto;html=1;entryX=-0.012;entryY=0.489;entryDx=0;entryDy=0;entryPerimeter=0;fontSize=12;fontColor=none;" edge="1" parent="WIyWlLk6GJQsqaUBKTNV-1" source="9OzK3of8a9EYW3qf5LEb-2" target="zkfFHV4jXpPFQw0GAbJ--1">
          <mxGeometry relative="1" as="geometry" />
        </mxCell>
        <mxCell id="9OzK3of8a9EYW3qf5LEb-2" value="&lt;div style=&quot;font-size: 11px&quot;&gt;&lt;span&gt;&lt;font style=&quot;font-size: 11px&quot;&gt;Key - is column name in select without a&lt;/font&gt;&lt;/span&gt;&lt;/div&gt;&lt;div style=&quot;font-size: 11px&quot;&gt;&lt;span&gt;&lt;font style=&quot;font-size: 11px&quot;&gt;&lt;br&gt;&lt;/font&gt;&lt;/span&gt;&lt;/div&gt;&lt;div style=&quot;font-size: 11px&quot;&gt;&lt;span&gt;&lt;font style=&quot;font-size: 11px&quot;&gt;columns = [&lt;/font&gt;&lt;/span&gt;&lt;/div&gt;&lt;blockquote style=&quot;margin: 0 0 0 40px ; border: none ; padding: 0px&quot;&gt;&lt;span style=&quot;font-size: 11px&quot;&gt;key =&amp;gt; [&lt;/span&gt;&lt;/blockquote&gt;&lt;blockquote style=&quot;margin: 0px 0px 0px 40px ; border: none ; padding: 0px&quot;&gt;&lt;span style=&quot;font-size: 11px&quot;&gt;&lt;span style=&quot;white-space: pre&quot;&gt;	&lt;/span&gt;type&amp;nbsp; &amp;nbsp; &amp;nbsp; &amp;nbsp; &amp;nbsp; =&amp;gt; COLUMN&lt;br&gt;&lt;/span&gt;&lt;span style=&quot;font-size: 11px&quot;&gt;&lt;span style=&quot;white-space: pre&quot;&gt;	&lt;/span&gt;table&amp;nbsp; &amp;nbsp; &amp;nbsp; &amp;nbsp; &amp;nbsp;=&amp;gt; (null -&amp;gt; mainTable.key) |&amp;nbsp;&lt;/span&gt;&lt;span style=&quot;font-size: 11px&quot;&gt;string in table.column&lt;/span&gt;&lt;/blockquote&gt;&lt;blockquote style=&quot;margin: 0px 0px 0px 40px ; border: none ; padding: 0px&quot;&gt;&lt;span style=&quot;font-size: 11px&quot;&gt;&lt;span style=&quot;white-space: pre&quot;&gt;	&lt;/span&gt;aggregate =&amp;gt; null | [&lt;br&gt;&lt;/span&gt;&lt;/blockquote&gt;&lt;blockquote style=&quot;margin: 0px 0px 0px 40px ; border: none ; padding: 0px&quot;&gt;&lt;blockquote style=&quot;margin: 0px 0px 0px 40px ; border: none ; padding: 0px&quot;&gt;&lt;span style=&quot;font-size: 11px&quot;&gt;t&lt;/span&gt;&lt;span style=&quot;font-size: 11px&quot;&gt;ype&amp;nbsp; &amp;nbsp; &amp;nbsp; &amp;nbsp; &amp;nbsp; &amp;nbsp;=&amp;gt; AGGREGATE_TYPE,&lt;br&gt;&lt;/span&gt;&lt;/blockquote&gt;&lt;blockquote style=&quot;margin: 0px 0px 0px 40px ; border: none ; padding: 0px&quot;&gt;&lt;span style=&quot;font-size: 11px&quot;&gt;expression =&amp;gt; (null -&amp;gt; column) |&amp;nbsp;&lt;/span&gt;&lt;span style=&quot;font-size: 11px&quot;&gt;expression&lt;/span&gt;&lt;/blockquote&gt;&lt;/blockquote&gt;&lt;blockquote style=&quot;margin: 0px 0px 0px 40px ; border: none ; padding: 0px&quot;&gt;&lt;div style=&quot;font-size: 11px&quot;&gt;&lt;span style=&quot;white-space: pre&quot;&gt;	&lt;/span&gt;]&lt;/div&gt;&lt;div style=&quot;font-size: 11px&quot;&gt;]&lt;/div&gt;&lt;/blockquote&gt;&lt;div style=&quot;font-size: 11px&quot;&gt;&lt;/div&gt;&lt;div style=&quot;font-size: 11px&quot;&gt;&lt;span&gt;&lt;font style=&quot;font-size: 11px&quot;&gt;]&lt;/font&gt;&lt;/span&gt;&lt;/div&gt;" style="rounded=0;whiteSpace=wrap;html=1;strokeWidth=0;verticalAlign=top;align=left;" vertex="1" parent="WIyWlLk6GJQsqaUBKTNV-1">
          <mxGeometry x="-755" y="-980" width="380" height="170" as="geometry" />
        </mxCell>
        <mxCell id="9OzK3of8a9EYW3qf5LEb-7" style="edgeStyle=orthogonalEdgeStyle;rounded=0;orthogonalLoop=1;jettySize=auto;html=1;entryX=-0.008;entryY=0.687;entryDx=0;entryDy=0;entryPerimeter=0;fontSize=12;fontColor=none;" edge="1" parent="WIyWlLk6GJQsqaUBKTNV-1" source="9OzK3of8a9EYW3qf5LEb-6" target="zkfFHV4jXpPFQw0GAbJ--1">
          <mxGeometry relative="1" as="geometry" />
        </mxCell>
        <mxCell id="9OzK3of8a9EYW3qf5LEb-6" value="Key - relation name&lt;br&gt;&lt;br&gt;joins = [&lt;br&gt;&lt;span style=&quot;white-space: pre&quot;&gt;	&lt;/span&gt;key =&amp;gt; [&lt;br&gt;&lt;span style=&quot;white-space: pre&quot;&gt;	&lt;span style=&quot;white-space: pre&quot;&gt;	&lt;/span&gt;f&lt;/span&gt;irst_column&amp;nbsp; &amp;nbsp; &amp;nbsp; &amp;nbsp; &amp;nbsp; &amp;nbsp; &amp;nbsp;=&amp;gt; &quot;table1.column&quot;&lt;br&gt;&lt;span style=&quot;white-space: pre&quot;&gt;	&lt;/span&gt;&lt;span style=&quot;white-space: pre&quot;&gt;	&lt;/span&gt;operator&amp;nbsp; &amp;nbsp; &amp;nbsp; &amp;nbsp; &amp;nbsp; &amp;nbsp; &amp;nbsp; &amp;nbsp; &amp;nbsp; &amp;nbsp;=&amp;gt; &quot;operator&quot;&lt;br&gt;&lt;span style=&quot;white-space: pre&quot;&gt;	&lt;/span&gt;&lt;span style=&quot;white-space: pre&quot;&gt;	&lt;/span&gt;second_column&amp;nbsp; &amp;nbsp; &amp;nbsp; &amp;nbsp;=&amp;gt; &quot;table2.column&quot;&lt;br&gt;&lt;span style=&quot;white-space: pre&quot;&gt;	&lt;/span&gt;]&lt;br&gt;]" style="rounded=0;whiteSpace=wrap;html=1;strokeWidth=0;verticalAlign=top;align=left;" vertex="1" parent="WIyWlLk6GJQsqaUBKTNV-1">
          <mxGeometry x="-740" y="-710" width="350" height="150" as="geometry" />
        </mxCell>
        <mxCell id="9OzK3of8a9EYW3qf5LEb-8" value="&lt;div style=&quot;text-align: left&quot;&gt;&lt;span&gt;1. relation&lt;/span&gt;&lt;/div&gt;&lt;div style=&quot;text-align: left&quot;&gt;&lt;span&gt;2. aggregators&lt;/span&gt;&lt;/div&gt;&lt;div style=&quot;text-align: left&quot;&gt;&lt;span&gt;3. groupBy&lt;/span&gt;&lt;/div&gt;" style="whiteSpace=wrap;html=1;labelBackgroundColor=none;fontSize=12;fontColor=none;strokeWidth=0;" vertex="1" parent="WIyWlLk6GJQsqaUBKTNV-1">
          <mxGeometry x="-827" y="-1380" width="120" height="60" as="geometry" />
        </mxCell>
        <mxCell id="9OzK3of8a9EYW3qf5LEb-11" value="MapperBuilder" style="swimlane;fontStyle=2;align=center;verticalAlign=top;childLayout=stackLayout;horizontal=1;startSize=26;horizontalStack=0;resizeParent=1;resizeLast=0;collapsible=1;marginBottom=0;rounded=0;shadow=0;strokeWidth=1;" vertex="1" parent="WIyWlLk6GJQsqaUBKTNV-1">
          <mxGeometry x="-310" y="-550" width="430" height="250" as="geometry">
            <mxRectangle x="230" y="140" width="160" height="26" as="alternateBounds" />
          </mxGeometry>
        </mxCell>
        <mxCell id="9OzK3of8a9EYW3qf5LEb-12" value="-mapped: Mapper&#xa;-columns: array&#xa;-filtres: ?array&#xa;-orderBy: ?array" style="text;align=left;verticalAlign=top;spacingLeft=4;spacingRight=4;overflow=hidden;rotatable=0;points=[[0,0.5],[1,0.5]];portConstraint=eastwest;" vertex="1" parent="9OzK3of8a9EYW3qf5LEb-11">
          <mxGeometry y="26" width="430" height="84" as="geometry" />
        </mxCell>
        <mxCell id="9OzK3of8a9EYW3qf5LEb-13" value="" style="line;html=1;strokeWidth=1;align=left;verticalAlign=middle;spacingTop=-1;spacingLeft=3;spacingRight=3;rotatable=0;labelPosition=right;points=[];portConstraint=eastwest;" vertex="1" parent="9OzK3of8a9EYW3qf5LEb-11">
          <mxGeometry y="110" width="430" height="8" as="geometry" />
        </mxCell>
        <mxCell id="9OzK3of8a9EYW3qf5LEb-14" value="+constructor(mapped: Mapper, columns: array, filtres: ?array, orderBy: ?array)&#xa;+getQuery(): ElBuilder&#xa;+getData(): array of columns&#xa;-selectBuilder(builder: Builder): self&#xa;-joinsBuilder(builder: Builder): self&#xa;-groupByBuilder(builder: Builder): self&#xa;-filterBuilder(builder: Builder): self&#xa;-orderByBuilder(builder: Builder): self" style="text;align=left;verticalAlign=top;spacingLeft=4;spacingRight=4;overflow=hidden;rotatable=0;points=[[0,0.5],[1,0.5]];portConstraint=eastwest;" vertex="1" parent="9OzK3of8a9EYW3qf5LEb-11">
          <mxGeometry y="118" width="430" height="132" as="geometry" />
        </mxCell>
        <mxCell id="9OzK3of8a9EYW3qf5LEb-17" style="edgeStyle=orthogonalEdgeStyle;rounded=0;orthogonalLoop=1;jettySize=auto;html=1;exitX=0;exitY=0.5;exitDx=0;exitDy=0;fontSize=12;fontColor=none;entryX=-0.005;entryY=0.097;entryDx=0;entryDy=0;entryPerimeter=0;" edge="1" parent="WIyWlLk6GJQsqaUBKTNV-1" source="zkfFHV4jXpPFQw0GAbJ--5" target="9OzK3of8a9EYW3qf5LEb-14">
          <mxGeometry relative="1" as="geometry">
            <mxPoint x="-340" y="-410" as="targetPoint" />
            <Array as="points">
              <mxPoint x="-340" y="-646" />
              <mxPoint x="-340" y="-419" />
            </Array>
          </mxGeometry>
        </mxCell>
        <mxCell id="9OzK3of8a9EYW3qf5LEb-48" value="IMapperRelationBuilder  implements IMapperBaseColumnManipulationBuilder" style="swimlane;fontStyle=2;align=center;verticalAlign=top;childLayout=stackLayout;horizontal=1;startSize=26;horizontalStack=0;resizeParent=1;resizeLast=0;collapsible=1;marginBottom=0;rounded=0;shadow=0;strokeWidth=1;" vertex="1" parent="WIyWlLk6GJQsqaUBKTNV-1">
          <mxGeometry x="709" y="-721" width="440" height="78" as="geometry">
            <mxRectangle x="230" y="140" width="160" height="26" as="alternateBounds" />
          </mxGeometry>
        </mxCell>
        <mxCell id="9OzK3of8a9EYW3qf5LEb-49" value="+relation(secondTable: string, fc, o, sc):  IMapperRelationBuilder&#xa;+mapOn(column: string): IMapperBaseColumnManipulationBuilder" style="text;align=left;verticalAlign=top;spacingLeft=4;spacingRight=4;overflow=hidden;rotatable=0;points=[[0,0.5],[1,0.5]];portConstraint=eastwest;" vertex="1" parent="9OzK3of8a9EYW3qf5LEb-48">
          <mxGeometry y="26" width="440" height="44" as="geometry" />
        </mxCell>
        <mxCell id="9OzK3of8a9EYW3qf5LEb-50" value="" style="line;html=1;strokeWidth=1;align=left;verticalAlign=middle;spacingTop=-1;spacingLeft=3;spacingRight=3;rotatable=0;labelPosition=right;points=[];portConstraint=eastwest;" vertex="1" parent="9OzK3of8a9EYW3qf5LEb-48">
          <mxGeometry y="70" width="440" height="8" as="geometry" />
        </mxCell>
        <mxCell id="9OzK3of8a9EYW3qf5LEb-52" value="MapperColumnBuilder implements IMapperBaseColumnManipulationBuilder" style="swimlane;fontStyle=2;align=center;verticalAlign=top;childLayout=stackLayout;horizontal=1;startSize=26;horizontalStack=0;resizeParent=1;resizeLast=0;collapsible=1;marginBottom=0;rounded=0;shadow=0;strokeWidth=1;" vertex="1" parent="WIyWlLk6GJQsqaUBKTNV-1">
          <mxGeometry x="190" y="-750" width="460" height="110" as="geometry">
            <mxRectangle x="230" y="140" width="160" height="26" as="alternateBounds" />
          </mxGeometry>
        </mxCell>
        <mxCell id="9OzK3of8a9EYW3qf5LEb-58" value="+setCurrentColumn(&amp;column)&#xa;+relation(secondTable: string, fc, o, sc):  MapperRelationBuilder" style="text;align=left;verticalAlign=top;spacingLeft=4;spacingRight=4;overflow=hidden;rotatable=0;points=[[0,0.5],[1,0.5]];portConstraint=eastwest;" vertex="1" parent="9OzK3of8a9EYW3qf5LEb-52">
          <mxGeometry y="26" width="460" height="84" as="geometry" />
        </mxCell>
        <mxCell id="9OzK3of8a9EYW3qf5LEb-84" style="edgeStyle=orthogonalEdgeStyle;rounded=0;orthogonalLoop=1;jettySize=auto;html=1;entryX=0.5;entryY=0;entryDx=0;entryDy=0;fontSize=12;fontColor=none;" edge="1" parent="WIyWlLk6GJQsqaUBKTNV-1" source="9OzK3of8a9EYW3qf5LEb-65" target="9OzK3of8a9EYW3qf5LEb-52">
          <mxGeometry relative="1" as="geometry" />
        </mxCell>
        <mxCell id="9OzK3of8a9EYW3qf5LEb-65" value="IMapperBaseColumnManipulationBuilder" style="swimlane;fontStyle=2;align=center;verticalAlign=top;childLayout=stackLayout;horizontal=1;startSize=26;horizontalStack=0;resizeParent=1;resizeLast=0;collapsible=1;marginBottom=0;rounded=0;shadow=0;strokeWidth=1;" vertex="1" parent="WIyWlLk6GJQsqaUBKTNV-1">
          <mxGeometry x="220" y="-940" width="400" height="150" as="geometry">
            <mxRectangle x="-295" y="-990" width="160" height="26" as="alternateBounds" />
          </mxGeometry>
        </mxCell>
        <mxCell id="9OzK3of8a9EYW3qf5LEb-77" value="+groupBy(): IMapperBaseColumnManipulationBuilder&#xa;+sum(expretion: ?string): IMapperBaseColumnManipulationBuilder&#xa;+avg(expretion: ?string): IMapperBaseColumnManipulationBuilder&#xa;+count(expretion: ?string): IMapperBaseColumnManipulationBuilder&#xa;+max(expretion: ?string): IMapperBaseColumnManipulationBuilder&#xa;+min(expretion: ?string): IMapperBaseColumnManipulationBuilder&#xa;" style="text;align=left;verticalAlign=top;spacingLeft=4;spacingRight=4;overflow=hidden;rotatable=0;points=[[0,0.5],[1,0.5]];portConstraint=eastwest;" vertex="1" parent="9OzK3of8a9EYW3qf5LEb-65">
          <mxGeometry y="26" width="400" height="104" as="geometry" />
        </mxCell>
        <mxCell id="9OzK3of8a9EYW3qf5LEb-88" style="edgeStyle=orthogonalEdgeStyle;rounded=0;orthogonalLoop=1;jettySize=auto;html=1;exitX=1;exitY=0.5;exitDx=0;exitDy=0;entryX=1;entryY=0.5;entryDx=0;entryDy=0;fontSize=12;fontColor=none;" edge="1" parent="WIyWlLk6GJQsqaUBKTNV-1" source="9OzK3of8a9EYW3qf5LEb-77" target="9OzK3of8a9EYW3qf5LEb-49">
          <mxGeometry relative="1" as="geometry" />
        </mxCell>
        <mxCell id="9OzK3of8a9EYW3qf5LEb-93" style="edgeStyle=orthogonalEdgeStyle;rounded=0;orthogonalLoop=1;jettySize=auto;html=1;exitX=1;exitY=0.5;exitDx=0;exitDy=0;entryX=0;entryY=0.5;entryDx=0;entryDy=0;fontSize=12;fontColor=none;" edge="1" parent="WIyWlLk6GJQsqaUBKTNV-1" source="9OzK3of8a9EYW3qf5LEb-58" target="9OzK3of8a9EYW3qf5LEb-48">
          <mxGeometry relative="1" as="geometry" />
        </mxCell>
        <mxCell id="9OzK3of8a9EYW3qf5LEb-105" style="edgeStyle=orthogonalEdgeStyle;rounded=0;orthogonalLoop=1;jettySize=auto;html=1;exitX=0;exitY=0.5;exitDx=0;exitDy=0;entryX=0.999;entryY=0.229;entryDx=0;entryDy=0;entryPerimeter=0;fontSize=12;fontColor=none;" edge="1" parent="WIyWlLk6GJQsqaUBKTNV-1" source="9OzK3of8a9EYW3qf5LEb-58" target="zkfFHV4jXpPFQw0GAbJ--5">
          <mxGeometry relative="1" as="geometry" />
        </mxCell>
      </root>
    </mxGraphModel>
  </diagram>
</mxfile>
